<svg width="159" height="24" viewBox="0 0 159 24" fill="none" xmlns="http://www.w3.org/2000/svg">
<path d="M41.8182 5.36364V17H40.4091V5.36364H41.8182ZM53.8707 5.36364V17H52.5071L46.1662 7.86364H46.0526V17H44.6435V5.36364H46.0071L52.3707 14.5227H52.4844V5.36364H53.8707ZM57.1676 5.36364L60.6222 15.1591H60.7585L64.2131 5.36364H65.6903L61.4176 17H59.9631L55.6903 5.36364H57.1676ZM67.5028 17V5.36364H74.5256V6.61364H68.9119V10.5455H74.1619V11.7955H68.9119V15.75H74.6165V17H67.5028ZM83.429 8.27273C83.3608 7.69697 83.0843 7.25 82.5994 6.93182C82.1146 6.61364 81.5199 6.45455 80.8153 6.45455C80.3002 6.45455 79.8494 6.53788 79.4631 6.70455C79.0805 6.87121 78.7813 7.10038 78.5653 7.39205C78.3532 7.68371 78.2472 8.01515 78.2472 8.38636C78.2472 8.69697 78.321 8.96401 78.4688 9.1875C78.6203 9.4072 78.8134 9.59091 79.0483 9.73864C79.2831 9.88258 79.5294 10.0019 79.7869 10.0966C80.0445 10.1875 80.2812 10.2614 80.4972 10.3182L81.679 10.6364C81.982 10.7159 82.3191 10.8258 82.6903 10.9659C83.0653 11.1061 83.4233 11.2973 83.7642 11.5398C84.1089 11.7784 84.393 12.0852 84.6165 12.4602C84.84 12.8352 84.9517 13.2955 84.9517 13.8409C84.9517 14.4697 84.7869 15.0379 84.4574 15.5455C84.1316 16.053 83.6544 16.4564 83.0256 16.7557C82.4006 17.0549 81.6411 17.2045 80.7472 17.2045C79.9138 17.2045 79.1922 17.0701 78.5824 16.8011C77.9763 16.5322 77.4991 16.1572 77.1506 15.6761C76.8059 15.1951 76.6108 14.6364 76.5653 14H78.0199C78.0578 14.4394 78.2055 14.803 78.4631 15.0909C78.7244 15.375 79.054 15.5871 79.4517 15.7273C79.8532 15.8636 80.285 15.9318 80.7472 15.9318C81.285 15.9318 81.768 15.8447 82.196 15.6705C82.6241 15.4924 82.9631 15.2462 83.2131 14.9318C83.4631 14.6136 83.5881 14.2424 83.5881 13.8182C83.5881 13.4318 83.4801 13.1174 83.2642 12.875C83.0483 12.6326 82.7642 12.4356 82.4119 12.2841C82.0597 12.1326 81.679 12 81.2699 11.8864L79.8381 11.4773C78.929 11.2159 78.2093 10.8428 77.679 10.358C77.1487 9.87311 76.8835 9.23864 76.8835 8.45455C76.8835 7.80303 77.0597 7.23485 77.4119 6.75C77.768 6.26136 78.2453 5.88258 78.8438 5.61364C79.446 5.34091 80.1184 5.20455 80.8608 5.20455C81.6108 5.20455 82.2775 5.33901 82.8608 5.60795C83.4441 5.87311 83.9063 6.23674 84.2472 6.69886C84.5919 7.16098 84.7737 7.68561 84.7926 8.27273H83.429ZM86.6321 6.61364V5.36364H95.3594V6.61364H91.7003V17H90.2912V6.61364H86.6321ZM98.9432 5.36364V17H97.5341V5.36364H98.9432ZM101.768 5.36364H103.45L107.405 15.0227H107.541L111.496 5.36364H113.178V17H111.859V8.15909H111.746L108.109 17H106.837L103.2 8.15909H103.087V17H101.768V5.36364ZM116.003 17V5.36364H123.026V6.61364H117.412V10.5455H122.662V11.7955H117.412V15.75H123.116V17H116.003ZM134.793 5.36364V17H133.429L127.088 7.86364H126.974V17H125.565V5.36364H126.929L133.293 14.5227H133.406V5.36364H134.793ZM136.976 6.61364V5.36364H145.703V6.61364H142.044V17H140.635V6.61364H136.976ZM157.212 11.1818C157.212 12.4091 156.99 13.4697 156.547 14.3636C156.104 15.2576 155.496 15.947 154.723 16.4318C153.95 16.9167 153.068 17.1591 152.075 17.1591C151.083 17.1591 150.2 16.9167 149.428 16.4318C148.655 15.947 148.047 15.2576 147.604 14.3636C147.161 13.4697 146.939 12.4091 146.939 11.1818C146.939 9.95455 147.161 8.89394 147.604 8C148.047 7.10606 148.655 6.41667 149.428 5.93182C150.2 5.44697 151.083 5.20455 152.075 5.20455C153.068 5.20455 153.95 5.44697 154.723 5.93182C155.496 6.41667 156.104 7.10606 156.547 8C156.99 8.89394 157.212 9.95455 157.212 11.1818ZM155.848 11.1818C155.848 10.1742 155.679 9.32386 155.342 8.63068C155.009 7.9375 154.556 7.41288 153.984 7.05682C153.416 6.70076 152.78 6.52273 152.075 6.52273C151.371 6.52273 150.732 6.70076 150.161 7.05682C149.592 7.41288 149.14 7.9375 148.803 8.63068C148.469 9.32386 148.303 10.1742 148.303 11.1818C148.303 12.1894 148.469 13.0398 148.803 13.733C149.14 14.4261 149.592 14.9508 150.161 15.3068C150.732 15.6629 151.371 15.8409 152.075 15.8409C152.78 15.8409 153.416 15.6629 153.984 15.3068C154.556 14.9508 155.009 14.4261 155.342 13.733C155.679 13.0398 155.848 12.1894 155.848 11.1818Z" fill="#3FFFFF"/>
<rect width="23" height="24" rx="4" fill="#F91E38"/>
<path d="M10.7841 19.4545V4.90909H11.7159V19.4545H10.7841ZM13.4716 9.5625C13.4186 9.06629 13.1951 8.67992 12.8011 8.40341C12.411 8.12689 11.9034 7.98864 11.2784 7.98864C10.839 7.98864 10.4621 8.05492 10.1477 8.1875C9.83333 8.32008 9.5928 8.5 9.42614 8.72727C9.25947 8.95455 9.17424 9.21402 9.17045 9.50568C9.17045 9.74811 9.22538 9.95833 9.33523 10.1364C9.44886 10.3144 9.60227 10.4659 9.79545 10.5909C9.98864 10.7121 10.2027 10.8144 10.4375 10.8977C10.6723 10.9811 10.9091 11.0511 11.1477 11.108L12.2386 11.3807C12.678 11.483 13.1004 11.6212 13.5057 11.7955C13.9148 11.9697 14.2803 12.1894 14.6023 12.4545C14.928 12.7197 15.1856 13.0398 15.375 13.4148C15.5644 13.7898 15.6591 14.2292 15.6591 14.733C15.6591 15.4148 15.4848 16.0152 15.1364 16.5341C14.7879 17.0492 14.2841 17.4527 13.625 17.7443C12.9697 18.0322 12.1761 18.1761 11.2443 18.1761C10.339 18.1761 9.55303 18.036 8.88636 17.7557C8.22348 17.4754 7.70455 17.0663 7.32955 16.5284C6.95833 15.9905 6.75758 15.3352 6.72727 14.5625H8.80114C8.83144 14.9678 8.95644 15.3049 9.17614 15.5739C9.39583 15.8428 9.68182 16.0436 10.0341 16.1761C10.3902 16.3087 10.7879 16.375 11.2273 16.375C11.6856 16.375 12.0871 16.3068 12.4318 16.1705C12.7803 16.0303 13.053 15.8371 13.25 15.5909C13.447 15.3409 13.5473 15.0492 13.5511 14.7159C13.5473 14.4129 13.4583 14.1629 13.2841 13.9659C13.1098 13.7652 12.8655 13.5985 12.5511 13.4659C12.2405 13.3295 11.8769 13.2083 11.4602 13.1023L10.1364 12.7614C9.17803 12.5152 8.42045 12.142 7.86364 11.642C7.31061 11.1383 7.03409 10.4697 7.03409 9.63636C7.03409 8.95076 7.2197 8.35038 7.59091 7.83523C7.96591 7.32008 8.47538 6.92045 9.11932 6.63636C9.76326 6.34848 10.4924 6.20455 11.3068 6.20455C12.1326 6.20455 12.8561 6.34848 13.4773 6.63636C14.1023 6.92045 14.5928 7.31629 14.9489 7.82386C15.3049 8.32765 15.4886 8.9072 15.5 9.5625H13.4716Z" fill="white"/>
</svg>
