<svg width="164" height="77" viewBox="0 0 164 77" fill="none" xmlns="http://www.w3.org/2000/svg">
<path d="M49.7727 4.61364V3.36364H58.5V4.61364H54.8409V15H53.4318V4.61364H49.7727ZM60.6747 15V3.36364H64.6065C65.5156 3.36364 66.2618 3.51894 66.8452 3.82955C67.4285 4.13636 67.8603 4.55871 68.1406 5.09659C68.4209 5.63447 68.5611 6.24621 68.5611 6.93182C68.5611 7.61742 68.4209 8.22538 68.1406 8.75568C67.8603 9.28598 67.4304 9.70265 66.8509 10.0057C66.2713 10.3049 65.5308 10.4545 64.6293 10.4545H61.4474V9.18182H64.5838C65.205 9.18182 65.705 9.09091 66.0838 8.90909C66.4664 8.72727 66.7429 8.4697 66.9134 8.13636C67.0876 7.79924 67.1747 7.39773 67.1747 6.93182C67.1747 6.46591 67.0876 6.05871 66.9134 5.71023C66.7391 5.36174 66.4607 5.0928 66.0781 4.90341C65.6955 4.71023 65.1899 4.61364 64.5611 4.61364H62.0838V15H60.6747ZM66.152 9.77273L69.0156 15H67.3793L64.5611 9.77273H66.152ZM70.9091 15V3.36364H77.9318V4.61364H72.3182V8.54545H77.5682V9.79545H72.3182V13.75H78.0227V15H70.9091ZM81.8807 3.36364V15H80.4716V3.36364H81.8807ZM93.9332 3.36364V15H92.5696L86.2287 5.86364H86.1151V15H84.706V3.36364H86.0696L92.4332 12.5227H92.5469V3.36364H93.9332ZM97.2301 15H95.7528L100.026 3.36364H101.48L105.753 15H104.276L100.798 5.20455H100.707L97.2301 15ZM97.7756 10.4545H103.73V11.7045H97.7756V10.4545ZM107.565 3.36364H109.247L113.202 13.0227H113.338L117.293 3.36364H118.974V15H117.656V6.15909H117.543L113.906 15H112.634L108.997 6.15909H108.884V15H107.565V3.36364ZM121.8 15V3.36364H128.822V4.61364H123.209V8.54545H128.459V9.79545H123.209V13.75H128.913V15H121.8ZM140.589 3.36364V15H139.226L132.885 5.86364H132.771V15H131.362V3.36364H132.726L139.089 12.5227H139.203V3.36364H140.589ZM142.773 4.61364V3.36364H151.5V4.61364H147.841V15H146.432V4.61364H142.773ZM163.009 9.18182C163.009 10.4091 162.787 11.4697 162.344 12.3636C161.901 13.2576 161.293 13.947 160.52 14.4318C159.747 14.9167 158.865 15.1591 157.872 15.1591C156.88 15.1591 155.997 14.9167 155.224 14.4318C154.452 13.947 153.844 13.2576 153.401 12.3636C152.957 11.4697 152.736 10.4091 152.736 9.18182C152.736 7.95455 152.957 6.89394 153.401 6C153.844 5.10606 154.452 4.41667 155.224 3.93182C155.997 3.44697 156.88 3.20455 157.872 3.20455C158.865 3.20455 159.747 3.44697 160.52 3.93182C161.293 4.41667 161.901 5.10606 162.344 6C162.787 6.89394 163.009 7.95455 163.009 9.18182ZM161.645 9.18182C161.645 8.17424 161.476 7.32386 161.139 6.63068C160.806 5.9375 160.353 5.41288 159.781 5.05682C159.213 4.70076 158.577 4.52273 157.872 4.52273C157.168 4.52273 156.529 4.70076 155.957 5.05682C155.389 5.41288 154.937 5.9375 154.599 6.63068C154.266 7.32386 154.099 8.17424 154.099 9.18182C154.099 10.1894 154.266 11.0398 154.599 11.733C154.937 12.4261 155.389 12.9508 155.957 13.3068C156.529 13.6629 157.168 13.8409 157.872 13.8409C158.577 13.8409 159.213 13.6629 159.781 13.3068C160.353 12.9508 160.806 12.4261 161.139 11.733C161.476 11.0398 161.645 10.1894 161.645 9.18182Z" fill="#34D0D0"/>
<path d="M13.0227 25.4545V72H4.59091V25.4545H13.0227ZM37.9261 72H22.1534V25.4545H38.2443C42.8655 25.4545 46.8352 26.3864 50.1534 28.25C53.4867 30.0985 56.0474 32.7576 57.8352 36.2273C59.6231 39.697 60.517 43.8485 60.517 48.6818C60.517 53.5303 59.6155 57.697 57.8125 61.1818C56.0246 64.6667 53.4413 67.3409 50.0625 69.2045C46.6989 71.0682 42.6534 72 37.9261 72ZM30.5852 64.7045H37.517C40.7595 64.7045 43.464 64.1136 45.6307 62.9318C47.7973 61.7348 49.4261 59.9545 50.517 57.5909C51.608 55.2121 52.1534 52.2424 52.1534 48.6818C52.1534 45.1212 51.608 42.1667 50.517 39.8182C49.4261 37.4545 47.8125 35.6894 45.6761 34.5227C43.5549 33.3409 40.9186 32.75 37.767 32.75H30.5852V64.7045ZM95.7557 46.3182L88.2557 47.1364C88.0436 46.3788 87.6723 45.6667 87.142 45C86.6269 44.3333 85.9299 43.7955 85.0511 43.3864C84.1723 42.9773 83.0966 42.7727 81.8239 42.7727C80.1117 42.7727 78.6723 43.1439 77.5057 43.8864C76.3542 44.6288 75.786 45.5909 75.8011 46.7727C75.786 47.7879 76.1572 48.6136 76.9148 49.25C77.6875 49.8864 78.9602 50.4091 80.733 50.8182L86.6875 52.0909C89.9905 52.803 92.4451 53.9318 94.0511 55.4773C95.6723 57.0227 96.4905 59.0455 96.5057 61.5455C96.4905 63.7424 95.8466 65.6818 94.5739 67.3636C93.3163 69.0303 91.5663 70.3333 89.3239 71.2727C87.0814 72.2121 84.5057 72.6818 81.5966 72.6818C77.3239 72.6818 73.8845 71.7879 71.2784 70C68.6723 68.197 67.1193 65.6894 66.6193 62.4773L74.642 61.7045C75.0057 63.2803 75.7784 64.4697 76.9602 65.2727C78.142 66.0758 79.6799 66.4773 81.5739 66.4773C83.5284 66.4773 85.0966 66.0758 86.2784 65.2727C87.4754 64.4697 88.0739 63.4773 88.0739 62.2955C88.0739 61.2955 87.6875 60.4697 86.9148 59.8182C86.1572 59.1667 84.9754 58.6667 83.3693 58.3182L77.4148 57.0682C74.0663 56.3712 71.589 55.197 69.983 53.5455C68.3769 51.8788 67.5814 49.7727 67.5966 47.2273C67.5814 45.0758 68.1648 43.2121 69.3466 41.6364C70.5436 40.0455 72.2027 38.8182 74.3239 37.9545C76.4602 37.0758 78.9223 36.6364 81.7102 36.6364C85.8011 36.6364 89.0208 37.5076 91.3693 39.25C93.733 40.9924 95.1951 43.3485 95.7557 46.3182ZM118.744 72.6818C115.244 72.6818 112.222 71.9545 109.676 70.5C107.146 69.0303 105.199 66.9545 103.835 64.2727C102.472 61.5758 101.79 58.4015 101.79 54.75C101.79 51.1591 102.472 48.0076 103.835 45.2955C105.214 42.5682 107.138 40.447 109.608 38.9318C112.078 37.4015 114.979 36.6364 118.312 36.6364C120.464 36.6364 122.494 36.9848 124.403 37.6818C126.328 38.3636 128.025 39.4242 129.494 40.8636C130.979 42.303 132.146 44.1364 132.994 46.3636C133.843 48.5758 134.267 51.2121 134.267 54.2727V56.7955H105.653V51.25H126.381C126.366 49.6742 126.025 48.2727 125.358 47.0455C124.691 45.803 123.759 44.8258 122.562 44.1136C121.381 43.4015 120.002 43.0455 118.426 43.0455C116.744 43.0455 115.267 43.4545 113.994 44.2727C112.722 45.0758 111.729 46.1364 111.017 47.4545C110.32 48.7576 109.964 50.1894 109.949 51.75V56.5909C109.949 58.6212 110.32 60.3636 111.062 61.8182C111.805 63.2576 112.843 64.3636 114.176 65.1364C115.509 65.8939 117.07 66.2727 118.858 66.2727C120.055 66.2727 121.138 66.1061 122.108 65.7727C123.078 65.4242 123.919 64.9167 124.631 64.25C125.343 63.5833 125.881 62.7576 126.244 61.7727L133.926 62.6364C133.441 64.6667 132.517 66.4394 131.153 67.9545C129.805 69.4545 128.078 70.6212 125.972 71.4545C123.866 72.2727 121.456 72.6818 118.744 72.6818ZM158.659 37.0909V43.4545H138.591V37.0909H158.659ZM143.545 28.7273H151.773V61.5C151.773 62.6061 151.939 63.4545 152.273 64.0455C152.621 64.6212 153.076 65.0152 153.636 65.2273C154.197 65.4394 154.818 65.5455 155.5 65.5455C156.015 65.5455 156.485 65.5076 156.909 65.4318C157.348 65.3561 157.682 65.2879 157.909 65.2273L159.295 71.6591C158.856 71.8106 158.227 71.9773 157.409 72.1591C156.606 72.3409 155.621 72.447 154.455 72.4773C152.394 72.5379 150.538 72.2273 148.886 71.5455C147.235 70.8485 145.924 69.7727 144.955 68.3182C144 66.8636 143.53 65.0455 143.545 62.8636V28.7273Z" fill="white"/>
<rect x="43" y="8" width="2" height="39" transform="rotate(90 43 8)" fill="#F91E38"/>
</svg>
